# xmcd
#
# Track frame offsets: 
#        150
#        18162
#        37042
#        54304
#        72064
#        91646
#        111464
#        130603
#        145973
#        164359
#        181421
#        198788
#
# Disc length: 2881 seconds
#
# Revision: 0
# Processed by: cddbd v1.5.2PL0 Copyright (c) Steve Scherf et al.
# Submitted via: ExactAudioCopy v1.2
#
DISCID=990b3f0c
DTITLE=Charlie Landsborough - Greatest
DYEAR=2012
DGENRE=Country
TTITLE0=What Colour Is The Wind
TTITLE1=My Forever Friend
TTITLE2=I Will Love You All My Life
TTITLE3=I Dreamed I Was In Heaven
TTITLE4=Heaven Knows
TTITLE5=A Million Ways To Fall
TTITLE6=Love You Every Second
TTITLE7=Part Of Me
TTITLE8=To Make You Feel My Love
TTITLE9=Smile
TTITLE10=The Twelfth Of Never
TTITLE11=Fields Of Gold
EXTD=
EXTT0=
EXTT1=
EXTT2=
EXTT3=
EXTT4=
EXTT5=
EXTT6=
EXTT7=
EXTT8=
EXTT9=
EXTT10=
EXTT11=
PLAYORDER=
